/* XPM */
static const char * add_deact_xpm[] = {
"20 20 2 1",
" 	c None",
".	c #494949",
"                    ",
"      ........      ",
"      ........      ",
"      ........      ",
"      ........      ",
"      ........      ",
" .................. ",
" .................. ",
" .................. ",
" .................. ",
" .................. ",
" .................. ",
" .................. ",
" .................. ",
"      ........      ",
"      ........      ",
"      ........      ",
"      ........      ",
"      ........      ",
"                    "};
