/* XPM */
static const char * edit_deact_xpm[] = {
"24 24 2 1",
" 	c None",
".	c #787878",
"                  ..    ",
"                ......  ",
"                ....... ",
"              .  ...... ",
"             ..   ......",
"            ..  .  .....",
"           ..  ...  ... ",
"          ..  .....  .. ",
"         ..  .....      ",
"        ..  .....  ..   ",
"       ..  .....  ..    ",
"      ..  .....  ..     ",
"     ..  .....  ..      ",
"    ..  .....  ..       ",
"   ..  .....  ..        ",
"   .  .....  ..         ",
"     .....  ..          ",
"  .  ....  ..           ",
" ..  ...  ..            ",
" ...     ..             ",
" ....   ..              ",
" ......                 ",
"......                  ",
"..                      "};
