/* XPM */
static char * new2_xpm[] = {
"24 24 36 1",
" 	c None",
".	c #000000",
"+	c #000000",
"@	c #000000",
"#	c #000000",
"$	c #000000",
"%	c #000000",
"&	c #000000",
"*	c #000000",
"=	c #000000",
"-	c #000000",
";	c #000000",
">	c #000000",
",	c #000000",
"'	c #000000",
")	c #000000",
"!	c #000000",
"~	c #000004",
"{	c #000003",
"]	c #000003",
"^	c #000003",
"/	c #000002",
"(	c #000002",
"_	c #000002",
":	c #020002",
"<	c #020002",
"[	c #020002",
"}	c #010001",
"|	c #010003",
"1	c #010003",
"2	c #010002",
"3	c #010002",
"4	c #010002",
"5	c #010002",
"6	c #010002",
"7	c #010002",
"                        ",
"    }777777777777       ",
"   2777        <7       ",
"  47777         7       ",
" 577777         7       ",
"6777777         7       ",
"7777777         7       ",
"73                      ",
"72                      ",
"72                      ",
"72             777[     ",
"72             777[     ",
"72             777[     ",
"72             777[     ",
"72             777|     ",
"72       :77777777777777",
"72       :77777777777777",
"72       :77777777777777",
"72             7771     ",
"72             777[     ",
"72             777[     ",
"74             777[     ",
"777777777777   777[     ",
"                        "};
