/* XPM */
static const char * new3_deact_xpm[] = {
"24 24 2 1",
" 	c None",
".	c #767676",
"   ..................   ",
"   ..................   ",
"   ..................   ",
"   ..................   ",
"   ..................   ",
"   ..................   ",
"   ..................   ",
"   ..................   ",
"   ..................   ",
"   ..................   ",
"   ..................   ",
"   ..................   ",
"   ..................   ",
"   ..................   ",
"   ..................   ",
"   ..................   ",
"   ....  ............   ",
"   ....  ............   ",
"   ..       .....       ",
"   ..      .....  ...   ",
"   ....  ....... ...    ",
"   ....  ....... ..     ",
"   ............. ..     ",
"   .............        "};
