/* XPM */
static const char * new4_xpm[] = {
"24 24 5 1",
" 	c None",
".	c #010001",
"+	c #010002",
"@	c #020002",
"#	c #010003",
"                        ",
"    .++++++++++++       ",
"   ++++        @+       ",
"  +++++         +       ",
" ++++++         +       ",
"+++++++         +       ",
"+++++++         +       ",
"++                      ",
"++                      ",
"++                      ",
"++             +++@     ",
"++             +++@     ",
"++             +++@     ",
"++             +++@     ",
"++             +++#     ",
"++       @++++++++++++++",
"++       @++++++++++++++",
"++       @++++++++++++++",
"++             +++#     ",
"++             +++@     ",
"++             +++@     ",
"++             +++@     ",
"++++++++++++   +++@     ",
"                        "};
