/* XPM */
static const char * new_deact_xpm[] = {
"24 24 4 1",
" 	g None",
".	g #282828",
"+	g #383838",
"@	g #181818",
"  .........             ",
" ............           ",
"..+       ....          ",
"..        .....         ",
"..        ......        ",
"..        .......       ",
"..        .......       ",
"..             @..      ",
"..              ..      ",
"..              ..      ",
"..              ..      ",
"..              .       ",
"..                      ",
"..               ...    ",
"..             ......@  ",
"..            ....@.... ",
"..            ....  ...+",
"..           ....   ....",
"..           ..@     ...",
"..           ...     @.@",
"@.            ....  ....",
" ...........  @....@... ",
"  ..........+  .......  ",
"                +..@.   "};
