/* XPM */
static char * play_deact_xpm[] = {
"16 16 2 1",
" 	c None",
".	c #000000",
"  ..            ",
" .....          ",
" ......         ",
" ........       ",
" .........      ",
" ...........    ",
" ............   ",
" .............. ",
" .............. ",
" ............   ",
" ...........    ",
" .........      ",
" ........       ",
" ......         ",
" .....          ",
"  ..            "};
