/* XPM */
static const char * save_xpm[] = {
"24 24 37 1",
" 	c None",
".	c #000000",
"+	c #000000",
"@	c #000000",
"#	c #000000",
"$	c #000000",
"%	c #000000",
"&	c #000000",
"*	c #000000",
"=	c #000000",
"-	c #000000",
";	c #000000",
">	c #000000",
",	c #000000",
"'	c #000000",
")	c #000000",
"!	c #000000",
"~	c #000000",
"{	c #000000",
"]	c #000000",
"^	c #000000",
"/	c #000000",
"(	c #000000",
"_	c #000000",
":	c #000000",
"<	c #000000",
"[	c #000000",
"}	c #000000",
"|	c #000000",
"1	c #000000",
"2	c #000000",
"3	c #000000",
"4	c #000000",
"5	c #000000",
"6	c #000000",
"7	c #000000",
"8	c #000000",
" {788  4888888884       ",
"{8888  4888888884       ",
"78888  4888888884  |    ",
"88888  3888888883  8|   ",
"88888~            !88|  ",
"888885            5888| ",
"88888886444444446888888[",
"888888888888888888888888",
"888888888888888888888888",
"888888888888888888888888",
"888884444444444444488888",
"8883                3888",
"888^                ^888",
"888]  }4444444444}  ]888",
"888]  '))))))))))'  ]888",
"888]                ]888",
"888]    (______(    ]888",
"888]    :<<<<<<:    ]888",
"888]                ]888",
"8881                1888",
"88882//////////////28888",
"788888888888888888888887",
"{8888888888888888888888{",
" {78888888888888888887{ "};
