/* XPM */
static const char * save_deact_xpm[] = {
"24 24 2 1",
" 	c None",
".	c #767676",
" ....  ..........       ",
".....  ..........       ",
".....  ..........  .    ",
".....  ..........  ..   ",
"......            ....  ",
"......            ..... ",
"........................",
"........................",
"........................",
"........................",
"........................",
"....                ....",
"....                ....",
"....  ............  ....",
"....  ............  ....",
"....                ....",
"....    ........    ....",
"....    ........    ....",
"....                ....",
"....                ....",
"........................",
"........................",
"........................",
" ...................... "};
